<svg id="Layer_1" data-name="Layer 1" xmlns="http://www.w3.org/2000/svg" viewBox="0 0 315.01 76.34">
  <defs>
    <style>
      .cls-1 {
        fill: #08c;
      }

      .cls-2 {
        fill: #383838;
      }

      .cls-3 {
        fill: #474747;
      }
    </style>
  </defs>
  <title>logo</title>
  <g>
    <g>
      <path class="cls-1" d="M881.48,507.29v10.65h17.17v9.9H881.48v11.55H900.9v10.28H868.65V497H900.9v10.27Z" transform="translate(-782.69 -496.27)"/>
      <path class="cls-1" d="M915.67,548.32a16.86,16.86,0,0,1-7.31-5.55,15.15,15.15,0,0,1-2.89-8.85h13.65a6.62,6.62,0,0,0,2,4.46,6.51,6.51,0,0,0,4.5,1.54,7,7,0,0,0,4.5-1.31A4.39,4.39,0,0,0,931.8,535a4.31,4.31,0,0,0-1.31-3.22,10.62,10.62,0,0,0-3.23-2.1,52.46,52.46,0,0,0-5.44-1.87,59.15,59.15,0,0,1-8.33-3.15,15.36,15.36,0,0,1-5.55-4.65,13,13,0,0,1-2.33-8,13.8,13.8,0,0,1,5.33-11.51q5.32-4.16,13.88-4.16t14,4.16a14.9,14.9,0,0,1,5.7,11.59H930.67a5.43,5.43,0,0,0-1.87-4,6.61,6.61,0,0,0-4.43-1.46,5.51,5.51,0,0,0-3.75,1.24,4.46,4.46,0,0,0-1.42,3.56,4.41,4.41,0,0,0,2.4,4,39.2,39.2,0,0,0,7.5,3.08,69.53,69.53,0,0,1,8.29,3.3,15.8,15.8,0,0,1,5.51,4.57,12.26,12.26,0,0,1,2.32,7.73,15.16,15.16,0,0,1-2.29,8.17A16,16,0,0,1,936.3,548,22.71,22.71,0,0,1,926,550.19,27.08,27.08,0,0,1,915.67,548.32Z" transform="translate(-782.69 -496.27)"/>
      <path class="cls-1" d="M963.45,497v31.5q0,4.73,2.33,7.28t6.82,2.55q4.5,0,6.9-2.55t2.4-7.28V497h12.82v31.43a22.34,22.34,0,0,1-3,11.92,19.2,19.2,0,0,1-8.06,7.35,25.35,25.35,0,0,1-11.29,2.48,24.71,24.71,0,0,1-11.14-2.44,18.17,18.17,0,0,1-7.76-7.35,23.46,23.46,0,0,1-2.85-12V497Z" transform="translate(-782.69 -496.27)"/>
      <path class="cls-1" d="M1032,549.67l-17.7-23.25v23.25h-12.82V497h12.82v23.1l17.55-23.1h15.07l-20.4,25.8,21.15,26.85Z" transform="translate(-782.69 -496.27)"/>
      <path class="cls-1" d="M1082,549.67l-17.7-23.25v23.25H1051.5V497h12.83v23.1l17.55-23.1h15.08l-20.4,25.8,21.15,26.85Z" transform="translate(-782.69 -496.27)"/>
    </g>
    <g>
      <path class="cls-2" d="M796.55,542.3l0,.07c-4.25-3.78-7.95-8-9.39-13.75a22.4,22.4,0,0,1,19-27.81,22.17,22.17,0,0,1,12.21,1.92l.25.13a4.49,4.49,0,0,1,.45-.57c1-.58,1.94-1,2.9-1.66l-.22-.11a24.66,24.66,0,0,0-17.21-3.08c-10.05,1.87-17,7.66-20.28,17.35S783,533.39,790,541c2.18,2.39,4.57,4.58,6.83,6.9A23.61,23.61,0,0,1,796.55,542.3Z" transform="translate(-782.69 -496.27)"/>
      <path class="cls-1" d="M835.45,550.76a2.94,2.94,0,0,1-.51-.32c-2-1.59-2-1.59-4.59-2-.54-4-2.33-5.75-6.38-6.37a6.36,6.36,0,0,0-6.32-6.3c-.11-.59-.18-1.16-.34-1.71a6.14,6.14,0,0,0-10-3.09c-3.34,3-6.45,6.35-9.62,9.58a9.69,9.69,0,0,0-1.14,1.74,23.61,23.61,0,0,0,.27,5.6l.44.45a7.12,7.12,0,0,0,5.15,2.53c.34,4,2.68,6.13,6.29,6.42,0,.13.05.27.07.41a6.32,6.32,0,0,0,5.77,5.84c.57.08.6.36.65.81a6,6,0,0,0,4.08,5.22,5.63,5.63,0,0,0,6.3-1.34c3-2.95,6-5.94,8.93-8.91a6.18,6.18,0,0,0,1.93-4,.7.7,0,0,1,.26-.6A14.78,14.78,0,0,0,835.45,550.76Zm-31.24-4.24a2.66,2.66,0,1,1-3.75-3.77q4.36-4.38,8.73-8.74a2.71,2.71,0,0,1,3.06-.63,3.06,3.06,0,0,1,1.78,2.5,7.66,7.66,0,0,1-1,1.77C810.14,540.63,807.17,543.58,804.21,546.52Zm4.86,7.22c-1.58-.09-2.43-.66-2.87-1.72a2.44,2.44,0,0,1,.54-2.82q4.42-4.43,8.85-8.84a2.7,2.7,0,0,1,3.85-.07,2.59,2.59,0,0,1-.13,3.87c-2.86,2.87-5.71,5.75-8.61,8.58A7.19,7.19,0,0,1,809.07,553.74Zm6.41,6.29c-1.6,0-2.47-.56-2.91-1.64a2.45,2.45,0,0,1,.54-2.82c2.94-3,5.88-5.91,8.85-8.84a2.56,2.56,0,0,1,3.81-.13,2.63,2.63,0,0,1-.11,3.95c-2.84,2.85-5.67,5.71-8.55,8.52A6.64,6.64,0,0,1,815.48,560Zm16.61-3.25c-2.84,2.85-5.67,5.71-8.55,8.52a7.44,7.44,0,0,1-1.69,1c-1.6-.07-2.47-.59-2.92-1.66a2.43,2.43,0,0,1,.55-2.82q4.41-4.43,8.85-8.84a2.59,2.59,0,0,1,3.88-.05A2.62,2.62,0,0,1,832.09,556.78Z" transform="translate(-782.69 -496.27)"/>
      <path class="cls-1" d="M859.79,517.78a25.36,25.36,0,0,0-36.84-17.23,1.12,1.12,0,0,1-1.05.07c-1,.66-1.94,1.08-2.9,1.66a4.49,4.49,0,0,0-.45.57l.26.15c-3.55,3.83-7.14,7.66-10.68,11.54a6.6,6.6,0,0,0-.66,8.38,6.74,6.74,0,0,0,9.68,1.44c3.57-2.64,7.09-5.33,10.64-8l3.52-2.64a10.55,10.55,0,0,1,2-2.8l-.27-.27c-1.24-1.24-1.87-1.3-3.25-.26l-14.64,11c-1.92,1.43-4.24.94-5-1.07a2.89,2.89,0,0,1,.54-3.19c3-3.23,5.79-6.59,8.94-9.62,6.33-6.08,13.89-7.95,22.21-5.1S855,511.32,856.51,520a20.53,20.53,0,0,1-1.58,11.77,15,15,0,0,1,.89,5.78A24.58,24.58,0,0,0,859.79,517.78Z" transform="translate(-782.69 -496.27)"/>
      <path class="cls-2" d="M854.93,531.76l-.21.48c-.31-.29-.55-.5-.77-.73l-20.6-20.59a10.55,10.55,0,0,0-2,2.8h0c.37.44.7.88,1.09,1.27l18.52,18.53c1.31,1.32,1.43,2.63.36,3.86a2.49,2.49,0,0,1-4,.16c-2.08-2.05-4.13-4.13-6.2-6.19L832,522.24a5.91,5.91,0,0,0-.71-.65,1.68,1.68,0,0,0-2.23.18,1.66,1.66,0,0,0-.24,2.23,6,6,0,0,0,.7.78l15.09,15.27a2.67,2.67,0,1,1-3.65,3.88q-6.33-6.31-12.64-12.64c-1-1-1.94-1.95-2.91-2.91s-2-1-2.75-.2a1.79,1.79,0,0,0,.24,2.7L838,545.94c.23.23.46.45.67.69a2.57,2.57,0,0,1,.05,3.57,2.75,2.75,0,0,1-3.23.56,14.78,14.78,0,0,1,1.25,3.94,1,1,0,0,1,.47-.13,6.15,6.15,0,0,0,5.59-5.18c.07-.36.12-.73.18-1.1a6.77,6.77,0,0,0,4.48-1.82,6.05,6.05,0,0,0,1.85-4.44c2.26-.25,3.75-.87,4.76-2.1q1-1.17,1.79-2.38A15,15,0,0,0,854.93,531.76Z" transform="translate(-782.69 -496.27)"/>
    </g>
    <g>
      <path class="cls-3" d="M872.77,569h-1.25v-9.6h-3.39v-1.11h8v1.11h-3.39Z" transform="translate(-782.69 -496.27)"/>
      <path class="cls-3" d="M882.63,569v-5.19a2.1,2.1,0,0,0-.45-1.46,1.82,1.82,0,0,0-1.4-.48,2.3,2.3,0,0,0-1.85.69,3.49,3.49,0,0,0-.58,2.26V569h-1.22V557.6h1.22v3.45a7.51,7.51,0,0,1-.06,1h.07a2.48,2.48,0,0,1,1-.91,3.33,3.33,0,0,1,1.51-.33,3.1,3.1,0,0,1,2.21.7,3,3,0,0,1,.74,2.22V569Z" transform="translate(-782.69 -496.27)"/>
      <path class="cls-3" d="M889.29,569.15a3.69,3.69,0,0,1-2.81-1.08,4.2,4.2,0,0,1-1-3,4.66,4.66,0,0,1,1-3.08,3.18,3.18,0,0,1,2.57-1.14,3,3,0,0,1,2.39,1,3.81,3.81,0,0,1,.88,2.62v.77h-5.53a3.18,3.18,0,0,0,.71,2.15,2.47,2.47,0,0,0,1.91.73,6.46,6.46,0,0,0,2.56-.54v1.08a6.4,6.4,0,0,1-1.22.4A6.82,6.82,0,0,1,889.29,569.15Zm-.33-7.3a2,2,0,0,0-1.54.63,2.9,2.9,0,0,0-.68,1.74h4.2a2.67,2.67,0,0,0-.51-1.76A1.8,1.8,0,0,0,889,561.84Z" transform="translate(-782.69 -496.27)"/>
      <path class="cls-3" d="M897.49,558.29h3a5.7,5.7,0,0,1,3.08.64,2.25,2.25,0,0,1,1,2,2.33,2.33,0,0,1-.53,1.57,2.56,2.56,0,0,1-1.55.8v.07q2.44.42,2.44,2.56a2.75,2.75,0,0,1-1,2.24,4.13,4.13,0,0,1-2.71.81h-3.74Zm1.25,4.58h2.05a3.33,3.33,0,0,0,1.9-.41,1.6,1.6,0,0,0,.58-1.39,1.41,1.41,0,0,0-.64-1.3,4,4,0,0,0-2.05-.4h-1.83Zm0,1.05v4H901a3.19,3.19,0,0,0,2-.5,1.85,1.85,0,0,0,.66-1.57,1.66,1.66,0,0,0-.67-1.46,3.58,3.58,0,0,0-2-.47Z" transform="translate(-782.69 -496.27)"/>
      <path class="cls-3" d="M910.24,560.83a4.76,4.76,0,0,1,1,.09L911,562a4.15,4.15,0,0,0-.88-.11,2.14,2.14,0,0,0-1.67.79,2.88,2.88,0,0,0-.69,2V569h-1.22v-8h1l.14,1.49h.06a3.54,3.54,0,0,1,1.08-1.21A2.42,2.42,0,0,1,910.24,560.83Z" transform="translate(-782.69 -496.27)"/>
      <path class="cls-3" d="M912.15,558.8a.81.81,0,0,1,.21-.61.76.76,0,0,1,1,0,.79.79,0,0,1,.21.61.81.81,0,0,1-.21.61.71.71,0,0,1-.51.2.7.7,0,0,1-.51-.2A.82.82,0,0,1,912.15,558.8Zm1.32,10.2h-1.22v-8h1.22Z" transform="translate(-782.69 -496.27)"/>
      <path class="cls-3" d="M921.06,567.92H921a2.86,2.86,0,0,1-2.52,1.22,3,3,0,0,1-2.45-1.08,4.74,4.74,0,0,1-.88-3.06,4.82,4.82,0,0,1,.88-3.08,3,3,0,0,1,2.45-1.1A2.92,2.92,0,0,1,921,562h.1l-.05-.58,0-.56V557.6h1.22V569h-1Zm-2.43.21a2.22,2.22,0,0,0,1.81-.68,3.43,3.43,0,0,0,.56-2.19V565a4,4,0,0,0-.57-2.43,2.15,2.15,0,0,0-1.81-.73,1.86,1.86,0,0,0-1.64.83,4.13,4.13,0,0,0-.57,2.35,4,4,0,0,0,.56,2.32A1.91,1.91,0,0,0,918.62,568.13Z" transform="translate(-782.69 -496.27)"/>
      <path class="cls-3" d="M930.9,561v.77l-1.49.18a2.61,2.61,0,0,1,.53,1.6,2.37,2.37,0,0,1-.81,1.88,3.25,3.25,0,0,1-2.21.7,3.68,3.68,0,0,1-.67-.06,1.2,1.2,0,0,0-.78,1,.53.53,0,0,0,.27.49,2,2,0,0,0,.93.16h1.42a3.17,3.17,0,0,1,2,.55,1.91,1.91,0,0,1,.7,1.6,2.28,2.28,0,0,1-1.07,2,5.73,5.73,0,0,1-3.12.7,4.26,4.26,0,0,1-2.43-.59,1.89,1.89,0,0,1-.85-1.66,1.86,1.86,0,0,1,.47-1.27,2.39,2.39,0,0,1,1.32-.73,1.26,1.26,0,0,1-.52-.43,1.14,1.14,0,0,1-.21-.68,1.29,1.29,0,0,1,.23-.77,2.45,2.45,0,0,1,.74-.64,2.17,2.17,0,0,1-1-.87,2.56,2.56,0,0,1-.39-1.41,2.6,2.6,0,0,1,.79-2,3.23,3.23,0,0,1,2.24-.71,4.08,4.08,0,0,1,1.14.15Zm-6.4,9.38a1.09,1.09,0,0,0,.55,1,3,3,0,0,0,1.57.34,4.4,4.4,0,0,0,2.27-.46,1.4,1.4,0,0,0,.74-1.24,1,1,0,0,0-.4-.91,3.13,3.13,0,0,0-1.52-.25h-1.46a1.92,1.92,0,0,0-1.29.4A1.41,1.41,0,0,0,924.5,570.35Zm.66-6.8a1.64,1.64,0,0,0,.48,1.28,1.9,1.9,0,0,0,1.33.43,1.55,1.55,0,0,0,1.78-1.73,1.6,1.6,0,0,0-1.8-1.81,1.78,1.78,0,0,0-1.32.46A1.86,1.86,0,0,0,925.16,563.54Z" transform="translate(-782.69 -496.27)"/>
      <path class="cls-3" d="M935.49,569.15a3.69,3.69,0,0,1-2.81-1.08,4.2,4.2,0,0,1-1-3,4.66,4.66,0,0,1,1-3.08,3.18,3.18,0,0,1,2.57-1.14,3,3,0,0,1,2.39,1,3.81,3.81,0,0,1,.88,2.62v.77h-5.53a3.18,3.18,0,0,0,.71,2.15,2.47,2.47,0,0,0,1.91.73,6.46,6.46,0,0,0,2.56-.54v1.08a6.4,6.4,0,0,1-1.22.4A6.82,6.82,0,0,1,935.49,569.15Zm-.33-7.3a2,2,0,0,0-1.54.63,2.9,2.9,0,0,0-.68,1.74h4.2a2.67,2.67,0,0,0-.51-1.76A1.8,1.8,0,0,0,935.16,561.84Z" transform="translate(-782.69 -496.27)"/>
      <path class="cls-3" d="M943.7,558.29h3a5.7,5.7,0,0,1,3.08.64,2.25,2.25,0,0,1,1,2,2.33,2.33,0,0,1-.53,1.57,2.56,2.56,0,0,1-1.55.8v.07q2.44.42,2.44,2.56a2.75,2.75,0,0,1-1,2.24,4.13,4.13,0,0,1-2.71.81H943.7Zm1.25,4.58H947a3.33,3.33,0,0,0,1.9-.41,1.6,1.6,0,0,0,.58-1.39,1.41,1.41,0,0,0-.64-1.3,4,4,0,0,0-2.05-.4h-1.83Zm0,1.05v4h2.23a3.19,3.19,0,0,0,2-.5,1.85,1.85,0,0,0,.66-1.57,1.66,1.66,0,0,0-.67-1.46,3.58,3.58,0,0,0-2-.47Z" transform="translate(-782.69 -496.27)"/>
      <path class="cls-3" d="M956.17,569.15a3.69,3.69,0,0,1-2.81-1.08,4.2,4.2,0,0,1-1-3,4.66,4.66,0,0,1,1-3.08,3.18,3.18,0,0,1,2.57-1.14,3,3,0,0,1,2.39,1,3.81,3.81,0,0,1,.88,2.62v.77H953.6a3.18,3.18,0,0,0,.71,2.15,2.47,2.47,0,0,0,1.91.73,6.46,6.46,0,0,0,2.56-.54v1.08a6.4,6.4,0,0,1-1.22.4A6.82,6.82,0,0,1,956.17,569.15Zm-.33-7.3a2,2,0,0,0-1.54.63,2.9,2.9,0,0,0-.68,1.74h4.2a2.67,2.67,0,0,0-.51-1.76A1.8,1.8,0,0,0,955.84,561.84Z" transform="translate(-782.69 -496.27)"/>
      <path class="cls-3" d="M963.34,568.14a4,4,0,0,0,.62,0,3.9,3.9,0,0,0,.48-.1v.93a2.2,2.2,0,0,1-.58.16,4.3,4.3,0,0,1-.69.06q-2.33,0-2.33-2.45v-4.78h-1.15v-.59l1.15-.51.51-1.71h.7V561h2.33v.95h-2.33v4.72a1.63,1.63,0,0,0,.34,1.11A1.2,1.2,0,0,0,963.34,568.14Z" transform="translate(-782.69 -496.27)"/>
      <path class="cls-3" d="M972.15,569l-1.47-4.71q-.14-.43-.52-2h-.06q-.29,1.28-.51,2l-1.52,4.7h-1.41l-2.19-8h1.27l1.18,4.61a19,19,0,0,1,.46,2.13h.06q.08-.42.26-1.08t.31-1.05L969.5,561h1.32l1.44,4.61a15.55,15.55,0,0,1,.56,2.12h.06a7.73,7.73,0,0,1,.16-.81q.13-.55,1.53-5.91h1.26l-2.22,8Z" transform="translate(-782.69 -496.27)"/>
      <path class="cls-3" d="M980.2,569.15a3.69,3.69,0,0,1-2.81-1.08,4.19,4.19,0,0,1-1-3,4.66,4.66,0,0,1,1-3.08,3.18,3.18,0,0,1,2.57-1.14,3,3,0,0,1,2.39,1,3.81,3.81,0,0,1,.88,2.62v.77h-5.53a3.17,3.17,0,0,0,.71,2.15,2.46,2.46,0,0,0,1.91.73,6.47,6.47,0,0,0,2.56-.54v1.08a6.41,6.41,0,0,1-1.22.4A6.82,6.82,0,0,1,980.2,569.15Zm-.33-7.3a2,2,0,0,0-1.54.63,2.9,2.9,0,0,0-.68,1.74h4.2a2.67,2.67,0,0,0-.51-1.76A1.8,1.8,0,0,0,979.87,561.84Z" transform="translate(-782.69 -496.27)"/>
      <path class="cls-3" d="M988.17,569.15a3.69,3.69,0,0,1-2.81-1.08,4.19,4.19,0,0,1-1-3,4.66,4.66,0,0,1,1-3.08,3.18,3.18,0,0,1,2.57-1.14,3,3,0,0,1,2.39,1,3.81,3.81,0,0,1,.88,2.62v.77h-5.53a3.17,3.17,0,0,0,.71,2.15,2.46,2.46,0,0,0,1.91.73,6.46,6.46,0,0,0,2.56-.54v1.08a6.4,6.4,0,0,1-1.22.4A6.83,6.83,0,0,1,988.17,569.15Zm-.33-7.3a2,2,0,0,0-1.54.63,2.9,2.9,0,0,0-.68,1.74h4.2a2.67,2.67,0,0,0-.51-1.76A1.8,1.8,0,0,0,987.84,561.84Z" transform="translate(-782.69 -496.27)"/>
      <path class="cls-3" d="M998.24,569v-5.19a2.1,2.1,0,0,0-.45-1.46,1.82,1.82,0,0,0-1.4-.48,2.31,2.31,0,0,0-1.85.68,3.44,3.44,0,0,0-.59,2.25V569h-1.22v-8h1l.2,1.1H994a2.47,2.47,0,0,1,1-.92,3.4,3.4,0,0,1,1.5-.33,3,3,0,0,1,2.18.7,3,3,0,0,1,.73,2.24V569Z" transform="translate(-782.69 -496.27)"/>
      <path class="cls-3" d="M1005.13,558.29h3a5.7,5.7,0,0,1,3.08.64,2.25,2.25,0,0,1,1,2,2.33,2.33,0,0,1-.53,1.57,2.56,2.56,0,0,1-1.55.8v.07q2.44.42,2.44,2.56a2.75,2.75,0,0,1-1,2.24,4.13,4.13,0,0,1-2.71.81h-3.74Zm1.25,4.58h2.05a3.34,3.34,0,0,0,1.9-.41,1.6,1.6,0,0,0,.58-1.39,1.41,1.41,0,0,0-.64-1.3,4,4,0,0,0-2.05-.4h-1.83Zm0,1.05v4h2.23a3.19,3.19,0,0,0,2-.5,1.86,1.86,0,0,0,.65-1.57,1.66,1.66,0,0,0-.67-1.46,3.58,3.58,0,0,0-2-.47Z" transform="translate(-782.69 -496.27)"/>
      <path class="cls-3" d="M1015.36,561v5.21a2.09,2.09,0,0,0,.45,1.46,1.82,1.82,0,0,0,1.4.48,2.28,2.28,0,0,0,1.84-.69,3.47,3.47,0,0,0,.58-2.25V561h1.22v8h-1l-.18-1.08h-.07a2.42,2.42,0,0,1-1,.91,3.5,3.5,0,0,1-1.51.31,3.07,3.07,0,0,1-2.19-.7,3,3,0,0,1-.73-2.23V561Z" transform="translate(-782.69 -496.27)"/>
      <path class="cls-3" d="M1021.7,561h1.3l1.76,4.58a17.46,17.46,0,0,1,.72,2.26h.06q.09-.37.4-1.28t2-5.56h1.3l-3.45,9.14a4.56,4.56,0,0,1-1.2,1.92,2.54,2.54,0,0,1-1.68.57,4.9,4.9,0,0,1-1.1-.12v-1a4.25,4.25,0,0,0,.9.09,1.86,1.86,0,0,0,1.79-1.41l.45-1.14Z" transform="translate(-782.69 -496.27)"/>
      <path class="cls-3" d="M1033.47,569.15a3.69,3.69,0,0,1-2.81-1.08,4.2,4.2,0,0,1-1-3,4.66,4.66,0,0,1,1-3.08,3.18,3.18,0,0,1,2.57-1.14,3,3,0,0,1,2.39,1,3.81,3.81,0,0,1,.88,2.62v.77h-5.53a3.18,3.18,0,0,0,.71,2.15,2.47,2.47,0,0,0,1.91.73,6.46,6.46,0,0,0,2.56-.54v1.08a6.4,6.4,0,0,1-1.22.4A6.82,6.82,0,0,1,1033.47,569.15Zm-.33-7.3a2,2,0,0,0-1.54.63,2.91,2.91,0,0,0-.68,1.74h4.2a2.67,2.67,0,0,0-.51-1.76A1.8,1.8,0,0,0,1033.14,561.84Z" transform="translate(-782.69 -496.27)"/>
      <path class="cls-3" d="M1041.71,560.83a4.76,4.76,0,0,1,1,.09l-.17,1.13a4.15,4.15,0,0,0-.88-.11,2.14,2.14,0,0,0-1.67.79,2.89,2.89,0,0,0-.69,2V569H1038v-8h1l.14,1.49h.06a3.55,3.55,0,0,1,1.08-1.21A2.42,2.42,0,0,1,1041.71,560.83Z" transform="translate(-782.69 -496.27)"/>
      <path class="cls-3" d="M1046.7,566.22a2.88,2.88,0,0,1,.51-1.69,5.52,5.52,0,0,1,1.83-1.48,8.72,8.72,0,0,1-.85-1.05,3.56,3.56,0,0,1-.36-.75,2.48,2.48,0,0,1-.13-.8,2.14,2.14,0,0,1,.72-1.71,3,3,0,0,1,2-.62,2.69,2.69,0,0,1,1.87.61,2.17,2.17,0,0,1,.68,1.7,2.36,2.36,0,0,1-.5,1.45,5.66,5.66,0,0,1-1.65,1.34l3,2.86a3.53,3.53,0,0,0,.66-1.07,9,9,0,0,0,.41-1.34h1.23a7,7,0,0,1-1.5,3.18l2.19,2.13h-1.68l-1.36-1.3a5.2,5.2,0,0,1-3.75,1.45,3.54,3.54,0,0,1-2.44-.78A2.73,2.73,0,0,1,1046.7,566.22Zm3.34,1.83a4,4,0,0,0,2.93-1.13l-3.2-3.11a7.11,7.11,0,0,0-1.15.82,2.17,2.17,0,0,0-.5.7,2.12,2.12,0,0,0-.16.85,1.72,1.72,0,0,0,.57,1.36A2.2,2.2,0,0,0,1050,568.05Zm-1.13-7.63a1.9,1.9,0,0,0,.26,1,5.86,5.86,0,0,0,.9,1.1,4.76,4.76,0,0,0,1.32-1,1.68,1.68,0,0,0,.37-1.07,1.21,1.21,0,0,0-.38-.92,1.41,1.41,0,0,0-1-.36,1.56,1.56,0,0,0-1.06.35A1.19,1.19,0,0,0,1048.91,560.42Z" transform="translate(-782.69 -496.27)"/>
      <path class="cls-3" d="M1067.34,566.15a2.63,2.63,0,0,1-1,2.21,4.45,4.45,0,0,1-2.78.79,7,7,0,0,1-2.93-.49v-1.2a7.71,7.71,0,0,0,1.44.44,7.55,7.55,0,0,0,1.54.16,3.11,3.11,0,0,0,1.88-.47,1.55,1.55,0,0,0,.63-1.32,1.69,1.69,0,0,0-.22-.91,2.07,2.07,0,0,0-.75-.66,10.42,10.42,0,0,0-1.59-.68,5.07,5.07,0,0,1-2.13-1.27,2.79,2.79,0,0,1-.64-1.91,2.38,2.38,0,0,1,.93-2,3.87,3.87,0,0,1,2.46-.73,7.26,7.26,0,0,1,2.94.59l-.39,1.08a6.64,6.64,0,0,0-2.58-.56,2.5,2.5,0,0,0-1.54.42,1.4,1.4,0,0,0-.56,1.18,1.81,1.81,0,0,0,.21.91,1.93,1.93,0,0,0,.69.65,8.5,8.5,0,0,0,1.49.66,5.92,5.92,0,0,1,2.32,1.29A2.54,2.54,0,0,1,1067.34,566.15Z" transform="translate(-782.69 -496.27)"/>
      <path class="cls-3" d="M1072.29,569.15a3.69,3.69,0,0,1-2.81-1.08,4.19,4.19,0,0,1-1-3,4.66,4.66,0,0,1,1-3.08,3.18,3.18,0,0,1,2.57-1.14,3,3,0,0,1,2.39,1,3.81,3.81,0,0,1,.88,2.62v.77h-5.53a3.17,3.17,0,0,0,.71,2.15,2.46,2.46,0,0,0,1.91.73,6.47,6.47,0,0,0,2.56-.54v1.08a6.41,6.41,0,0,1-1.22.4A6.82,6.82,0,0,1,1072.29,569.15Zm-.33-7.3a2,2,0,0,0-1.54.63,2.9,2.9,0,0,0-.68,1.74h4.2a2.67,2.67,0,0,0-.51-1.76A1.8,1.8,0,0,0,1072,561.84Z" transform="translate(-782.69 -496.27)"/>
      <path class="cls-3" d="M1078.08,569h-1.22V557.6h1.22Z" transform="translate(-782.69 -496.27)"/>
      <path class="cls-3" d="M1081.42,569h-1.22V557.6h1.22Z" transform="translate(-782.69 -496.27)"/>
      <path class="cls-3" d="M1086.94,569.15a3.69,3.69,0,0,1-2.81-1.08,4.2,4.2,0,0,1-1-3,4.66,4.66,0,0,1,1-3.08,3.18,3.18,0,0,1,2.57-1.14,3,3,0,0,1,2.39,1,3.81,3.81,0,0,1,.88,2.62v.77h-5.53a3.18,3.18,0,0,0,.71,2.15,2.47,2.47,0,0,0,1.91.73,6.46,6.46,0,0,0,2.56-.54v1.08a6.4,6.4,0,0,1-1.22.4A6.82,6.82,0,0,1,1086.94,569.15Zm-.33-7.3a2,2,0,0,0-1.54.63,2.91,2.91,0,0,0-.68,1.74h4.2a2.67,2.67,0,0,0-.51-1.76A1.8,1.8,0,0,0,1086.61,561.84Z" transform="translate(-782.69 -496.27)"/>
      <path class="cls-3" d="M1095.17,560.83a4.76,4.76,0,0,1,1,.09L1096,562a4.15,4.15,0,0,0-.88-.11,2.14,2.14,0,0,0-1.67.79,2.88,2.88,0,0,0-.69,2V569h-1.22v-8h1l.14,1.49h.06a3.54,3.54,0,0,1,1.08-1.21A2.42,2.42,0,0,1,1095.17,560.83Z" transform="translate(-782.69 -496.27)"/>
    </g>
  </g>
</svg>
